<svg xmlns="http://www.w3.org/2000/svg" fill="none" viewBox="0 0 512 512">
  <path fill="#F0DB4F" d="M486 26H26v460h460V26z"/>
  <path fill="#323330" d="M171 462.3h3.1l35-72.1c4-8.4 8.6-22.3 8.6-22.3s4.4 13.9 8.4 22.3l33.6 72.1h3.1l54.3-150.9h-29.9l-21.5 60a354 354 0 00-8 27.1s-4.4-17-9.2-27L219.2 310h-3l-28.9 61.4c-4.8 10-9.2 27-9.2 27s-4.2-16.7-8-27l-21.7-60.1h-32.6l55.3 151zm232.6.7a97.3 97.3 0 0057.4-17.4v-64.7h-64.2v27h36v22a73.8 73.8 0 01-29.2 5.6c-31.4 0-49.5-21.4-49.5-49.3 0-28 17.6-48.8 44.7-48.8 17.4 0 26 5.9 33.4 13.6l21-20.7c-12.4-14-30-20.7-54.4-20.7-45.1 0-76.4 32.4-76.4 76.6 0 44.2 32.4 76.8 81.2 76.8z"/>
</svg>
